<svg width="280" height="70" viewBox="0 0 280 70" fill="none" xmlns="http://www.w3.org/2000/svg">
<path d="M279.499 55.8877H267.565V49.7324C266.903 50.9603 266.08 52.0477 265.095 52.9912L265.092 52.9941C263.833 54.1752 262.364 55.0924 260.69 55.7461C259.01 56.4024 257.153 56.7275 255.126 56.7275C251.621 56.7275 248.575 55.8567 246.007 54.1006C243.442 52.3469 241.475 49.8394 240.101 46.5986L240.1 46.5957C238.752 43.3543 238.085 39.4946 238.085 35.0273V34.9893C238.085 30.4964 238.765 26.6355 240.14 23.418C241.514 20.1784 243.466 17.6828 246.007 15.9541C248.575 14.198 251.621 13.3271 255.126 13.3271C257.104 13.3272 258.935 13.6527 260.614 14.3086C262.289 14.9627 263.757 15.9063 265.016 17.1377L265.136 17.252C266.098 18.1777 266.907 19.2452 267.565 20.4521V0H279.499V55.8877ZM259.293 55.7988C259.078 55.8585 258.861 55.9142 258.64 55.9639C258.971 55.8893 259.295 55.803 259.613 55.7061L259.293 55.7988ZM250.885 55.8467H250.884H250.885ZM247.68 54.6475H247.681H247.68ZM246.228 53.7773H246.227H246.228ZM242.22 49.7139H242.221H242.22ZM240.995 47.6045H240.994H240.995ZM260.499 46.9531C260.394 46.972 260.289 46.9888 260.183 47.0039C260.396 46.9737 260.605 46.936 260.81 46.8906L260.499 46.9531ZM258.868 23.3516C257.081 23.3516 255.559 23.8144 254.284 24.7285C253.004 25.646 252.002 26.9701 251.287 28.7217L251.286 28.7236C250.572 30.4465 250.209 32.5314 250.209 34.9893V35.0273C250.209 37.4584 250.559 39.5445 251.249 41.2949L251.316 41.458C252.026 43.1289 253.006 44.4122 254.247 45.3262C255.548 46.2406 257.083 46.7041 258.868 46.7041C260.601 46.7041 262.112 46.2415 263.416 45.3242C264.722 44.3796 265.749 43.0414 266.489 41.291C267.228 39.5423 267.603 37.4576 267.603 35.0273V34.9893C267.603 32.5603 267.215 30.4913 266.453 28.7705L266.451 28.7637C265.711 27.0122 264.683 25.6882 263.378 24.7695L263.375 24.7666L263.372 24.7646C262.095 23.8252 260.599 23.3516 258.868 23.3516ZM262.289 46.4092H262.29H262.289ZM264.615 44.8223C264.462 44.9719 264.305 45.1151 264.142 45.252C263.98 45.3887 263.813 45.5195 263.641 45.6436C263.555 45.7041 263.468 45.7626 263.381 45.8193H263.382C263.469 45.7627 263.555 45.7039 263.641 45.6436C263.985 45.3954 264.309 45.1214 264.615 44.8223ZM239.415 43.2793H239.414H239.415ZM238.755 39.748C238.817 40.2432 238.89 40.7285 238.972 41.2041C238.89 40.7285 238.817 40.2432 238.755 39.748ZM267.239 40.3916H267.238H267.239ZM238.599 38.2324H238.6H238.599ZM267.882 37.2461C267.853 37.5289 267.817 37.8066 267.775 38.0791C267.817 37.8066 267.853 37.5289 267.882 37.2461ZM267.977 35.9375V35.9385V35.9375ZM238.483 34.1611C238.478 34.4346 238.475 34.7107 238.475 34.9893V35.0273H238.476V34.9893C238.476 34.7107 238.478 34.4346 238.483 34.1611ZM267.953 33.6367C267.981 34.0755 267.995 34.5263 267.995 34.9893L267.991 34.5303C267.985 34.227 267.971 33.9292 267.953 33.6367ZM267.435 30.3838C267.503 30.6334 267.565 30.8881 267.621 31.1484C267.565 30.8878 267.503 30.6327 267.435 30.3828V30.3838ZM238.981 28.793H238.982H238.981ZM266.664 28.2783C266.714 28.3879 266.763 28.4994 266.811 28.6123C266.86 28.7236 266.909 28.8362 266.955 28.9502C266.909 28.8362 266.86 28.7236 266.811 28.6123C266.763 28.4994 266.714 28.388 266.664 28.2783ZM266.18 27.335C266.238 27.435 266.294 27.5364 266.349 27.6396L266.181 27.335C266.124 27.235 266.065 27.1367 266.006 27.04L266.18 27.335ZM239.811 25.415H239.812H239.811ZM263.347 24.2695C263.433 24.3277 263.519 24.3872 263.603 24.4492C263.689 24.5097 263.774 24.572 263.857 24.6357C263.774 24.5721 263.689 24.5096 263.603 24.4492C263.519 24.3872 263.433 24.3277 263.347 24.2695ZM261.408 23.332C261.21 23.2699 261.009 23.2165 260.804 23.1699C261.009 23.2165 261.21 23.2699 261.408 23.332ZM241.317 21.8604H241.318H241.317ZM243.686 18.4844C243.942 18.204 244.207 17.9347 244.48 17.6777C244.207 17.9347 243.942 18.204 243.686 18.4844ZM246.227 16.2773H246.228H246.227Z" fill="white"/>
<path d="M216.479 13.3276C220.059 13.3277 223.182 13.9074 225.839 15.0796C228.492 16.2244 230.564 17.858 232.036 19.9858L232.174 20.187C233.583 22.2755 234.284 24.6942 234.284 27.4282V55.8872H222.35V50.4224C221.645 51.5116 220.79 52.4757 219.784 53.314V53.3149C218.551 54.3375 217.15 55.1357 215.583 55.7104L215.577 55.7124C214.003 56.2632 212.291 56.5366 210.445 56.5366C207.67 56.5366 205.215 56.0042 203.089 54.9282H203.087L203.086 54.9272C200.965 53.8279 199.295 52.3176 198.085 50.397L198.084 50.394L198.082 50.3911C196.896 48.4409 196.306 46.2312 196.306 43.7729V43.6958C196.306 41.1331 196.948 38.925 198.25 37.0923C199.546 35.2416 201.416 33.8005 203.836 32.7593C206.255 31.7189 209.178 31.0882 212.595 30.8569H212.597L222.35 30.2495V28.1157C222.35 26.3982 221.81 25.0846 220.759 24.1274L220.758 24.1255L220.756 24.1245C219.708 23.1457 218.15 22.6255 216.02 22.6255C213.983 22.6255 212.416 23.0485 211.282 23.8521C210.131 24.6673 209.443 25.681 209.185 26.8979V26.8999L209.184 26.9019L209.041 27.5522H198.105L198.178 26.6704C198.388 24.0805 199.24 21.7695 200.736 19.7485L200.738 19.7466C202.214 17.7867 204.228 16.2538 206.762 15.144L207.008 15.0386C209.69 13.8935 212.851 13.3276 216.479 13.3276ZM214.327 38.5112H214.325C212.229 38.636 210.69 39.1329 209.657 39.9546L209.655 39.9556L209.653 39.9575C208.631 40.7469 208.125 41.79 208.125 43.1235V43.1997C208.125 44.5846 208.644 45.6494 209.685 46.437C210.743 47.2121 212.193 47.6206 214.073 47.6206C215.675 47.6206 217.091 47.3123 218.328 46.7065C219.596 46.0722 220.573 45.2253 221.269 44.1685L221.27 44.1665C221.989 43.0876 222.35 41.8781 222.35 40.5269V37.9956L214.327 38.5112ZM201.05 19.9819V19.981V19.9819ZM228.753 17.1782V17.1772V17.1782Z" fill="white"/>
<path d="M139.154 55.8867H127.221V0H139.154V55.8867Z" fill="white"/>
<path d="M102.885 45.6489L111.388 14.1675H123.995L109.767 56.3462C108.687 59.5855 107.317 62.1697 105.643 64.0786H105.642C103.995 65.9865 102.004 67.3496 99.6726 68.1616C97.3562 68.9684 94.6635 69.3677 91.6013 69.3677C90.4945 69.3677 89.4244 69.3156 88.3923 69.2124C87.3679 69.11 86.5152 68.9941 85.8376 68.8638L85.5202 68.8032V59.7222L85.9831 59.8091C86.2799 59.8647 86.6426 59.9204 87.072 59.9771L87.5232 60.0337L87.531 60.0347L87.5388 60.0366C88.1503 60.1345 88.855 60.1841 89.654 60.1841C91.2973 60.184 92.5442 59.9094 93.4294 59.397C94.2943 58.8962 94.971 58.0167 95.4333 56.7026L95.4353 56.6968L95.8825 55.4927L81.2722 14.1675H94.3825L102.885 45.6489ZM88.4323 68.8237H88.4314H88.4323ZM85.9109 68.48C86.0763 68.5118 86.2534 68.5425 86.4411 68.5728L85.9118 68.48L85.9109 60.1929V68.48ZM92.8327 60.1021V60.103V60.1021ZM93.6257 59.7349C93.5651 59.77 93.5026 59.8035 93.4392 59.8364H93.4401C93.5033 59.8037 93.5653 59.7698 93.6257 59.7349ZM96.2985 55.4956L95.8015 56.8325H95.8025L96.2985 55.4966L81.8259 14.5591H94.0837L102.726 46.5601L94.0837 14.5581H81.8249L96.2985 55.4956ZM111.688 14.5591L123.45 14.5581H111.688L103.045 46.5601H103.046L111.688 14.5591Z" fill="white"/>
<path d="M63.3248 13.3276C66.9049 13.3276 70.029 13.9073 72.6862 15.0796C75.3389 16.2244 77.4106 17.858 78.8825 19.9858L79.0211 20.187C80.4299 22.2755 81.1305 24.6942 81.1305 27.4282V55.8872H69.1969V50.4224C68.4921 51.5116 67.6364 52.4757 66.6305 53.314V53.3149C65.3981 54.3376 63.9958 55.1357 62.4284 55.7104L62.4235 55.7124C60.8499 56.2632 59.1381 56.5366 57.2916 56.5366C54.5171 56.5366 52.0611 56.0043 49.9352 54.9282L49.9342 54.9272H49.9323C47.8122 53.8279 46.1416 52.3176 44.9313 50.397L44.9303 50.394L44.9284 50.3911C43.7423 48.4408 43.153 46.2304 43.153 43.772V43.6958C43.153 41.1331 43.7948 38.9251 45.0963 37.0923C46.3925 35.2415 48.2624 33.8006 50.6832 32.7593C53.1021 31.7189 56.0251 31.0882 59.442 30.8569H59.444L69.1969 30.2495V28.1157C69.1969 26.3982 68.6566 25.0846 67.6061 24.1274L67.6051 24.1255L67.6032 24.1245C66.5544 23.1457 64.9968 22.6255 62.8668 22.6255C60.8293 22.6255 59.263 23.0485 58.1285 23.8521C56.9776 24.6673 56.2893 25.681 56.0319 26.8979V26.8999L56.0309 26.9019L55.8864 27.5513H44.9518L45.025 26.6704C45.2345 24.0805 46.0867 21.7695 47.5826 19.7485L47.5846 19.7466C49.0609 17.7867 51.0747 16.2538 53.609 15.144L53.8551 15.0386C56.5363 13.8935 59.6965 13.3277 63.3248 13.3276ZM55.3102 56.0474H55.3112H55.3102ZM58.0289 47.6128C58.1966 47.666 58.3698 47.7119 58.5475 47.7544C58.3698 47.7119 58.1966 47.6659 58.0289 47.6128ZM61.1735 38.5112H61.1715C59.0758 38.636 57.5365 39.1329 56.5035 39.9546L56.5016 39.9556L56.4996 39.9575C55.4781 40.7469 54.9713 41.79 54.9713 43.1235V43.1997C54.9713 44.5846 55.491 45.6494 56.5319 46.437C57.5898 47.2121 59.0394 47.6206 60.9196 47.6206C62.5221 47.6206 63.9376 47.3123 65.1744 46.7065C66.4432 46.0722 67.4192 45.2253 68.1159 44.1685L68.1168 44.1665C68.8361 43.0876 69.1968 41.8781 69.1969 40.5269V37.9956L61.1735 38.5112ZM65.3493 47.0562C65.2682 47.0959 65.1866 47.1351 65.1041 47.1724C65.1865 47.1351 65.2683 47.0968 65.3493 47.0571C65.432 47.0157 65.5139 46.9734 65.5944 46.9302C65.5139 46.9733 65.432 47.0148 65.3493 47.0562ZM66.2868 46.5171C66.1396 46.6141 65.9879 46.7075 65.8317 46.7974C65.9879 46.7075 66.1396 46.6141 66.2868 46.5171ZM67.4889 45.5474H67.4879H67.4889ZM68.443 44.3833H68.442C68.396 44.4532 68.3488 44.5222 68.3004 44.5903V44.5913C68.349 44.523 68.3968 44.4534 68.443 44.3833ZM69.3688 42.3169C69.327 42.4798 69.2799 42.6408 69.2262 42.7993C69.2799 42.6408 69.327 42.4798 69.3688 42.3169ZM43.8073 41.0454C43.7519 41.3078 43.7055 41.5754 43.6676 41.8481C43.7055 41.5754 43.7519 41.3078 43.8073 41.0454ZM45.4157 37.3188H45.4147H45.4157ZM52.2233 32.5874V32.5864V32.5874ZM45.4157 26.7026H45.4147H45.4157ZM64.4108 22.3345C64.5769 22.3575 64.7387 22.3865 64.8971 22.4175C64.7387 22.3865 64.5769 22.3575 64.4108 22.3345ZM47.8971 19.9819V19.981V19.9819ZM51.7369 16.5522C51.4561 16.7229 51.1839 16.9003 50.9205 17.0845C51.1839 16.9003 51.4561 16.7229 51.7369 16.5522Z" fill="white"/>
<path d="M22.54 0C26.4627 0 29.9147 0.800415 32.8828 2.41406C35.8485 4.00099 38.1551 6.24196 39.7959 9.13184C41.4645 12.0258 42.293 15.3921 42.293 19.2178V19.2939C42.293 23.1435 41.4658 26.5222 39.7979 29.416C38.157 32.307 35.8493 34.5484 32.8828 36.1357C29.9146 37.724 26.4628 38.5117 22.54 38.5117H12.3154V55.8867H0V0H22.54ZM12.3154 28.7168H19.7148C22.9593 28.7167 25.4244 27.8944 27.1641 26.2998C28.923 24.6854 29.8252 22.3822 29.8252 19.332V19.2559C29.8252 16.2054 28.9228 13.9165 27.166 12.3281L27.1641 12.3262C25.4244 10.7316 22.9593 9.90925 19.7148 9.90918H12.3154V28.7168ZM25.915 27.6904C25.6397 27.848 25.3531 27.9927 25.0547 28.124C25.3531 27.9927 25.6397 27.848 25.915 27.6904ZM29.8242 22.5537C29.7371 22.8783 29.6357 23.1918 29.5195 23.4941C29.6357 23.1918 29.7371 22.8783 29.8242 22.5537ZM40.0303 10.4092V10.4082V10.4092Z" fill="white"/>
<path d="M184.966 19.5472L170.801 36.8703L170.056 35.9757L182.58 20.4695L181.835 19.8732L183.326 18.084L184.966 19.5472Z" fill="white"/>
<path d="M158.577 13.1641C171.254 9.01959 181.055 16.9021 183.243 20.1328L170.168 36.0791L170.145 36.1045L170.166 36.0791C167.933 33.5277 164.837 32.6963 161.11 33.5908C158.353 34.2525 155.791 35.8765 154.847 36.5723C153.704 37.019 150.822 34.0373 150.077 29.2666C148.996 22.3501 153.408 17.6378 155.746 16.1465C144.836 21.6205 144.732 33.4954 144.856 37.4785C144.962 40.8878 146.071 45.7421 148.096 47.0967C150.122 48.4515 158.874 52.2282 169.31 54.7627L166.328 50.4111C166.427 50.262 167.48 49.3749 168.252 49.1543C170.293 48.5714 172.308 49.1547 172.906 49.4111C174.497 51.6379 175.793 53.33 176.227 53.6191C177.185 54.2569 183.84 54.866 187.07 55.2139L185.712 59.3848C182.432 59.1363 174.053 58.1623 166.777 56.2539C157.682 53.8683 148.885 50.1404 146.649 48.6494C144.413 47.1584 143.188 41.8158 143.071 38.0635C142.922 33.2921 143.071 18.2333 158.577 13.1641Z" fill="white"/>
<path d="M190.577 38.6297C190.577 32.4616 188.146 28.3838 184.518 23.9598L186.539 21.3643C190.392 25.851 192.72 31.6852 192.72 38.0632C191.975 47.6054 188.396 51.631 188.396 51.631C190.036 48.0527 190.577 43.3624 190.577 38.6297Z" fill="white"/>
<path d="M163.739 34.4844C167.938 34.4846 171.342 37.8887 171.342 42.0879C171.342 46.2873 167.938 49.6921 163.739 49.6924C159.539 49.6924 156.134 46.2874 156.134 42.0879C156.135 37.8885 159.539 34.4844 163.739 34.4844ZM163.788 37.6738C161.322 37.6739 159.323 39.6729 159.323 42.1387C159.323 44.6044 161.322 46.6035 163.788 46.6035C166.253 46.6035 168.252 44.6044 168.253 42.1387C168.253 39.6728 166.254 37.6738 163.788 37.6738Z" fill="white"/>
</svg>
