<svg width="119" height="22" viewBox="0 0 119 22" fill="none" xmlns="http://www.w3.org/2000/svg">
<path d="M85.4677 17.1229H81.8182V15.2411C81.6158 15.6164 81.3643 15.9487 81.0634 16.2372H81.0624V16.2381C80.6771 16.5993 80.2275 16.88 79.7157 17.0799C79.202 17.2805 78.6344 17.3797 78.0145 17.3797C76.943 17.3797 76.0119 17.1129 75.2264 16.576C74.442 16.0397 73.84 15.2731 73.4198 14.2821V14.2811C73.0076 13.29 72.8036 12.1099 72.8036 10.744V10.7323C72.8036 9.35859 73.0111 8.17797 73.4315 7.19418C73.8516 6.20355 74.4497 5.44056 75.2264 4.91196C76.0118 4.37506 76.943 4.10825 78.0145 4.10825C78.6193 4.10827 79.1789 4.20851 79.6923 4.40903C80.2043 4.60904 80.6539 4.89678 81.0389 5.27328L81.0751 5.30844C81.369 5.59153 81.6169 5.91792 81.8182 6.28696V0.0330505H85.4677V17.1229ZM79.1591 7.17368C78.6126 7.17368 78.1466 7.31503 77.7567 7.59457C77.3656 7.87504 77.0595 8.27992 76.8407 8.81528V8.81625C76.6224 9.34309 76.5106 9.98069 76.5106 10.7323V10.744C76.5106 11.4874 76.6181 12.1257 76.829 12.661L76.8495 12.7108C77.0666 13.2217 77.3666 13.614 77.746 13.8934C78.1438 14.1729 78.6133 14.3143 79.1591 14.3143C79.6889 14.3142 80.1511 14.1729 80.5497 13.8924C80.949 13.6036 81.263 13.1942 81.4891 12.659C81.715 12.1244 81.83 11.487 81.83 10.744V10.7323C81.8299 9.98969 81.7113 9.35703 81.4784 8.8309L81.4774 8.82895C81.2511 8.29339 80.9371 7.88818 80.538 7.60727L80.536 7.60532C80.1457 7.31813 79.6882 7.17375 79.1591 7.17368ZM81.9491 10.7323V10.744H81.9501V10.7323H81.9491ZM79.3622 7.06137H79.3632L79.1591 7.05356L79.3622 7.06137Z" fill="#161616"/>
<path d="M66.1962 4.10843C67.291 4.10843 68.247 4.28609 69.0595 4.64456C69.8705 4.99463 70.504 5.49401 70.954 6.14456L70.996 6.20609C71.4268 6.84468 71.6415 7.584 71.6415 8.41995V17.1231H67.9921V15.4512C67.7766 15.7843 67.5146 16.0796 67.207 16.336L67.0634 16.4502C66.7225 16.7088 66.342 16.9146 65.9228 17.0684L65.9208 17.0694C65.4397 17.2378 64.9161 17.3213 64.3515 17.3213C63.5032 17.3213 62.7515 17.1582 62.1015 16.8291L61.8642 16.6973C61.3271 16.3757 60.896 15.9572 60.5722 15.4434L60.5712 15.4424L60.4433 15.2149C60.1658 14.6757 60.0283 14.0758 60.0283 13.418V13.3946C60.0283 12.611 60.224 11.9354 60.622 11.375C61.0184 10.8091 61.5907 10.3682 62.331 10.0498C63.0706 9.73175 63.9649 9.53948 65.0097 9.46878L67.9921 9.28323V8.62991C67.992 8.10494 67.826 7.70279 67.5048 7.41019L67.3769 7.30472C67.062 7.07376 66.6265 6.9512 66.0566 6.9512C65.4335 6.9512 64.9543 7.08049 64.6074 7.3262C64.2554 7.57551 64.0455 7.88667 63.9667 8.25882L63.9218 8.45804H60.5781L60.6005 8.18851C60.6646 7.39652 60.9253 6.68931 61.3828 6.07132H61.3837C61.8352 5.472 62.4506 5.00345 63.2255 4.66409L63.3007 4.63187C64.1205 4.28177 65.0869 4.10848 66.1962 4.10843ZM65.8818 16.9561H65.8808C65.7643 16.9969 65.6452 17.0329 65.5234 17.0635C65.6454 17.0329 65.7651 16.9969 65.8818 16.9561ZM67.3984 16C67.3137 16.0852 67.2242 16.1663 67.1308 16.2442L67.2675 16.125C67.3121 16.0842 67.3559 16.0427 67.3984 16ZM67.9501 15.293H67.9511L68.0419 15.1348L67.9501 15.293ZM64.8456 14.6602C64.9709 14.6843 65.1037 14.7 65.2441 14.708H65.2451C65.1047 14.7 64.9719 14.6842 64.8466 14.6602H64.8456ZM67.9921 11.6514L65.538 11.8096C64.8973 11.8478 64.4271 11.9998 64.1113 12.251L64.1093 12.252C63.7971 12.4933 63.6425 12.8121 63.6425 13.2198V13.2432C63.6426 13.6664 63.8011 13.9917 64.1191 14.2325C64.4426 14.4694 64.886 14.5947 65.4609 14.5948C65.9508 14.5948 66.3835 14.5006 66.7617 14.3155C67.1497 14.1215 67.449 13.8623 67.662 13.5391L67.7392 13.4131C67.9077 13.1157 67.9921 12.7873 67.9921 12.4258V11.6514ZM63.6533 13.8594H63.6542H63.6533ZM63.5302 13.4102H63.5312H63.5302ZM63.7226 12.4922H63.7236H63.7226ZM67.2939 7.10843V7.10745V7.10843ZM70.8564 6.21292H70.8554H70.8564Z" fill="#161616"/>
<path d="M42.5513 17.1229H38.9028V0.0330505H42.5513V17.1229Z" fill="#161616"/>
<path d="M31.4614 13.9923L34.061 4.36533H37.9155L33.5649 17.2628C33.2348 18.2532 32.8158 19.0434 32.3042 19.627C31.8006 20.2104 31.1917 20.6277 30.479 20.8761C29.7707 21.1228 28.9467 21.2452 28.0103 21.2452C27.6718 21.2452 27.3444 21.2289 27.0288 21.1974C26.7157 21.166 26.4547 21.1307 26.2476 21.0909L26.1509 21.0724V18.295L26.2925 18.3214C26.3832 18.3384 26.4942 18.3558 26.6255 18.3731L26.7632 18.3907H26.7661L26.7681 18.3917C26.955 18.4216 27.1703 18.4366 27.4146 18.4366C27.9171 18.4366 28.2991 18.3521 28.5698 18.1954C28.834 18.0422 29.0408 17.7737 29.1821 17.3722V17.3712L29.1831 17.3702L29.3198 17.002L24.8521 4.36533H28.8608L31.4614 13.9923ZM26.27 20.9737H26.271L26.27 18.4395V20.9737ZM27.6021 18.5518C27.5413 18.5545 27.4787 18.5548 27.4146 18.5548L27.4155 18.5558C27.4794 18.5557 27.5416 18.5545 27.6021 18.5518ZM27.062 18.545V18.544V18.545ZM28.5132 18.3595C28.4324 18.3969 28.3449 18.4294 28.2505 18.4561C28.3449 18.4294 28.4324 18.3969 28.5132 18.3595ZM29.4468 17.003L29.2944 17.4122H29.2954L29.4468 17.003L25.021 4.48544L28.769 4.48447H25.021L29.4468 17.003ZM31.5093 14.2706L34.1528 4.48544H37.7495V4.48447H34.1528L31.5093 14.2706Z" fill="#161616"/>
<path d="M19.3646 4.10843C20.4592 4.10845 21.4144 4.28612 22.2269 4.64456C23.038 4.99464 23.6713 5.49394 24.1214 6.14456L24.1634 6.20609C24.5942 6.84468 24.8088 7.58399 24.8089 8.41995V17.1231H21.1595V15.4512C20.944 15.7842 20.6828 16.0797 20.3753 16.336L20.2308 16.4502C19.8898 16.7087 19.5094 16.9147 19.0901 17.0684L19.0882 17.0694C18.6071 17.2377 18.0833 17.3213 17.5189 17.3213C16.6706 17.3213 15.9198 17.1581 15.2698 16.8291H15.2689C14.6205 16.493 14.1097 16.0307 13.7396 15.4434L13.7386 15.4424C13.3759 14.846 13.1956 14.1698 13.1956 13.418V13.3946C13.1957 12.611 13.3924 11.9354 13.7903 11.375C14.1866 10.8094 14.7584 10.3691 15.4984 10.0508C16.238 9.73268 17.1322 9.53949 18.1771 9.46878L21.1595 9.28323V8.63089C21.1595 8.10568 20.9944 7.70386 20.6732 7.41116V7.41019H20.6722C20.3515 7.11087 19.8752 6.95218 19.2239 6.95218C18.601 6.95221 18.1226 7.08152 17.7757 7.32718C17.4238 7.57642 17.2129 7.88583 17.1341 8.25784V8.2598L17.0901 8.45804H13.7464L13.7689 8.18851C13.8329 7.39652 14.0936 6.68931 14.5511 6.07132L14.7278 5.85257C15.1587 5.35675 15.7148 4.96105 16.3929 4.66409L16.4681 4.63187C17.288 4.28172 18.255 4.10843 19.3646 4.10843ZM18.3157 17.1407H18.3167H18.3157ZM16.6253 17.1348L16.6243 17.1338L16.6253 17.1348ZM20.9163 15.5918H20.9173H20.9163ZM18.7064 11.8096H18.7054C18.0647 11.8478 17.5944 11.9998 17.2786 12.251H17.2776L17.2767 12.252C16.9646 12.4933 16.8099 12.8122 16.8099 13.2198V13.2432C16.8099 13.6666 16.9692 13.9926 17.2874 14.2334C17.6108 14.4701 18.0538 14.5947 18.6282 14.5948C19.1183 14.5948 19.5518 14.5007 19.93 14.3155C20.3179 14.1215 20.6164 13.8622 20.8294 13.5391L20.9066 13.4131C21.0751 13.1156 21.1595 12.7874 21.1595 12.4258V11.6514L18.7064 11.8096ZM17.2151 14.3291H17.2161H17.2151ZM16.6976 13.0576H16.6985H16.6976ZM17.2044 12.1573H17.2034H17.2044ZM18.6985 11.6895C18.5352 11.6992 18.3815 11.717 18.2376 11.7412C18.3816 11.7169 18.5352 11.6992 18.6985 11.6895L21.2786 11.5244V11.5235L18.6985 11.6895ZM24.595 7.51859H24.596H24.595ZM17.1077 7.94241L17.1087 7.94339L17.1077 7.94241ZM17.8519 7.13577C17.801 7.16471 17.7521 7.19645 17.7054 7.22952H17.7064C17.7532 7.19634 17.8018 7.16479 17.8528 7.13577H17.8519ZM20.4612 7.10843C20.4911 7.12548 20.5188 7.14546 20.5472 7.16409C20.4677 7.11187 20.3839 7.06328 20.2923 7.02347L20.4612 7.10843ZM23.2357 5.37503C23.5429 5.61816 23.8049 5.89788 24.0228 6.21292H24.0237C23.9149 6.05548 23.7946 5.90709 23.6634 5.76761C23.5319 5.62784 23.3895 5.49676 23.2357 5.37503ZM21.2239 4.43362C21.5623 4.51573 21.8802 4.62255 22.178 4.75394H22.179C22.0799 4.71021 21.9779 4.66818 21.8743 4.62991C21.6666 4.55321 21.4497 4.48839 21.2239 4.43362Z" fill="#161616"/>
<path d="M6.89258 0.03302C8.09195 0.0330349 9.14713 0.277947 10.0547 0.771301C10.9615 1.2565 11.6672 1.94148 12.1689 2.82501C12.6792 3.70996 12.9326 4.74013 12.9326 5.90997V5.93243C12.9326 7.10955 12.6799 8.14325 12.1699 9.02814C11.6682 9.91219 10.9618 10.5974 10.0547 11.0828C9.14712 11.5684 8.09196 11.8094 6.89258 11.8094H3.76562V17.1229H0V0.03302H6.89258ZM3.76562 8.81427H6.02832C7.02055 8.81427 7.77464 8.56268 8.30664 8.07501C8.84435 7.58135 9.12012 6.87673 9.12012 5.94415V5.92169C9.12012 4.98889 8.84384 4.28824 8.30664 3.80255L8.2041 3.71368C7.67929 3.28419 6.95856 3.06329 6.02832 3.06329H3.76562V8.81427ZM8.38672 8.1629H8.3877H8.38672ZM8.38672 3.71466H8.3877H8.38672Z" fill="#161616"/>
<path d="M56.5605 6.01043L52.2292 11.3076L52.0013 11.034L55.831 6.29246L55.6031 6.11009L56.059 5.56299L56.5605 6.01043Z" fill="#161616"/>
<path d="M48.4905 4.05862C52.3673 2.7912 55.3648 5.20165 56.0335 6.18948L52.0355 11.0655C51.3529 10.2853 50.4057 10.0312 49.2659 10.3047C48.4229 10.5071 47.6396 11.0041 47.3509 11.2168C47.0012 11.353 46.1198 10.441 45.8919 8.98245C45.5614 6.86732 46.9116 5.42666 47.6263 4.97073C44.2903 6.64448 44.2583 10.275 44.2962 11.4932C44.3287 12.5357 44.6672 14.0204 45.2864 14.4346C45.9057 14.8488 48.5823 16.0033 51.7737 16.7784L50.8616 15.4483C50.892 15.4027 51.2144 15.131 51.4505 15.0635C52.0773 14.8846 52.6961 15.0668 52.8753 15.1446C53.3606 15.8238 53.7554 16.3402 53.888 16.4287C54.1805 16.6238 56.2155 16.8106 57.2034 16.917L56.7884 18.1924C55.7852 18.1164 53.223 17.8179 50.9984 17.2344C48.2173 16.5049 45.5269 15.3651 44.8431 14.9092C44.1595 14.4529 43.7852 12.8191 43.7493 11.6719C43.7038 10.2125 43.7498 5.60872 48.4905 4.05862Z" fill="#161616"/>
<path d="M58.2763 11.8456C58.2763 9.95948 57.5329 8.71253 56.4234 7.35972L57.0413 6.56604C58.2195 7.93804 58.9315 9.72205 58.9315 11.6724C58.7035 14.5903 57.6093 15.8213 57.6093 15.8213C58.1108 14.727 58.2763 13.2928 58.2763 11.8456Z" fill="#161616"/>
<path d="M50.0695 10.5779C51.3536 10.5779 52.3947 11.6189 52.3947 12.9031C52.3946 14.1872 51.3536 15.2283 50.0695 15.2283C48.7853 15.2283 47.7443 14.1872 47.7443 12.9031C47.7443 11.6189 48.7853 10.5779 50.0695 10.5779ZM50.0841 11.5535C49.3302 11.5536 48.7189 12.1648 48.7189 12.9187C48.7191 13.6724 49.3304 14.2838 50.0841 14.2839C50.838 14.2839 51.4491 13.6725 51.4493 12.9187C51.4493 12.1647 50.8381 11.5535 50.0841 11.5535Z" fill="#161616"/>
<path d="M113.472 17.394C112.376 17.3861 111.411 17.124 110.577 16.6077C109.751 16.0915 109.108 15.3528 108.647 14.3918C108.186 13.4307 107.956 12.2989 107.956 10.9964V10.9725C107.956 9.66203 108.186 8.53022 108.647 7.57713C109.108 6.62403 109.751 5.88935 110.577 5.37309C111.411 4.85682 112.376 4.59869 113.472 4.59869C114.568 4.59869 115.529 4.85682 116.355 5.37309C117.189 5.88935 117.836 6.62403 118.297 7.57713C118.766 8.53022 119 9.66203 119 10.9725V10.9964C119 12.3069 118.766 13.4426 118.297 14.4037C117.836 15.3647 117.189 16.1034 116.355 16.6196C115.529 17.1359 114.568 17.394 113.472 17.394ZM113.472 16.5601C114.393 16.5601 115.2 16.3377 115.891 15.8929C116.582 15.4402 117.118 14.7968 117.499 13.9629C117.88 13.1289 118.071 12.1401 118.071 10.9964V10.9725C118.071 9.82882 117.876 8.84395 117.487 8.01793C117.106 7.18397 116.57 6.5446 115.879 6.09982C115.188 5.65504 114.385 5.43265 113.472 5.43265C112.551 5.43265 111.745 5.65902 111.054 6.11174C110.371 6.55652 109.838 7.19191 109.457 8.01793C109.076 8.84395 108.885 9.82882 108.885 10.9725V10.9964C108.885 12.1401 109.076 13.1289 109.457 13.9629C109.838 14.7968 110.371 15.4362 111.054 15.881C111.745 16.3258 112.551 16.5521 113.472 16.5601Z" fill="#161616"/>
<path d="M101.869 17.1915V4.80123H102.786V7.19589H102.822C103.06 6.37781 103.457 5.74241 104.013 5.28969C104.569 4.82903 105.256 4.59869 106.074 4.59869C106.32 4.59869 106.547 4.62252 106.753 4.67018C106.96 4.70989 107.119 4.75357 107.23 4.80123V5.71858C107.103 5.65504 106.932 5.59945 106.717 5.55179C106.503 5.49619 106.249 5.4684 105.955 5.4684C105.304 5.4684 104.74 5.63916 104.263 5.98069C103.787 6.31427 103.421 6.78685 103.167 7.39842C102.913 8.00205 102.786 8.69702 102.786 9.48332V17.1915H101.869Z" fill="#161616"/>
<path d="M89.4182 10.2577V9.39993H94.279C95.7405 9.39993 96.8921 9.01869 97.734 8.25621C98.5839 7.49373 99.0088 6.45327 99.0088 5.13482V5.11099C99.0088 3.78459 98.5839 2.74413 97.734 1.98959C96.8921 1.23506 95.7405 0.857788 94.279 0.857788H89.4182V0H94.4339C95.5459 0 96.5149 0.210476 97.3409 0.631427C98.1669 1.04444 98.8102 1.63615 99.2709 2.40657C99.7316 3.16905 99.9619 4.06655 99.9619 5.09907V5.1229C99.9619 6.16337 99.7316 7.06881 99.2709 7.83923C98.8102 8.60171 98.1669 9.1974 97.3409 9.62629C96.5149 10.0472 95.5459 10.2577 94.4339 10.2577H89.4182ZM88.9536 17.1915V0H89.8829V17.1915H88.9536Z" fill="#161616"/>
</svg>
